<svg id="Group_935" data-name="Group 935" xmlns="http://www.w3.org/2000/svg" xmlns:xlink="http://www.w3.org/1999/xlink" width="134" height="134" viewBox="0 0 134 134">
  <defs>
    <clipPath id="clip-path">
      <rect id="Rectangle_386" data-name="Rectangle 386" width="134" height="134" fill="none"/>
    </clipPath>
  </defs>
  <g id="Group_936" data-name="Group 936" clip-path="url(#clip-path)">
    <path id="Path_456" data-name="Path 456" d="M67,0A67,67,0,1,1,0,67,67,67,0,0,1,67,0" fill="#434197"/>
    <path id="Path_457" data-name="Path 457" d="M98.232,81.937c-2.981-.879-7.756-2.309-11.322-3.483a5.092,5.092,0,0,0-5.189,1.227l-1.2,1.19a5.13,5.13,0,0,1-5.8.989A46.654,46.654,0,0,1,52.141,59.272a5.132,5.132,0,0,1,.988-5.8l1.19-1.2a5.094,5.094,0,0,0,1.228-5.189c-1.174-3.566-2.6-8.341-3.484-11.322a2.832,2.832,0,0,0-3.6-1.9l-12,3.866a4.136,4.136,0,0,0-2.724,3.9c.782,14.333,8.714,29.861,18.737,39.884s25.551,17.956,39.884,18.738a4.137,4.137,0,0,0,3.9-2.725l3.866-12A2.833,2.833,0,0,0,98.232,81.937Z" fill="none" stroke="#fff" stroke-width="3"/>
  </g>
</svg>
