<svg id="Button-IG" xmlns="http://www.w3.org/2000/svg" xmlns:xlink="http://www.w3.org/1999/xlink" width="37.52" height="37.52" viewBox="0 0 37.52 37.52">
  <defs>
    <clipPath id="clip-path">
      <rect id="Rectangle_268" data-name="Rectangle 268" width="37.52" height="37.52" fill="#676ab1"/>
    </clipPath>
    <clipPath id="clip-path-4">
      <rect id="Rectangle_237" data-name="Rectangle 237" width="4.431" height="4.317" fill="#676ab1"/>
    </clipPath>
    <clipPath id="clip-path-5">
      <rect id="Rectangle_238" data-name="Rectangle 238" width="8.765" height="8.493" fill="#676ab1"/>
    </clipPath>
    <clipPath id="clip-path-7">
      <rect id="Rectangle_240" data-name="Rectangle 240" width="16.93" height="10.084" fill="#676ab1"/>
    </clipPath>
  </defs>
  <g id="Group_724" data-name="Group 724" clip-path="url(#clip-path)">
    <g id="Group_723" data-name="Group 723">
      <g id="Group_722" data-name="Group 722" clip-path="url(#clip-path)">
        <g id="Group_646" data-name="Group 646" style="mix-blend-mode: darken;isolation: isolate">
          <g id="Group_645" data-name="Group 645">
            <g id="Group_644" data-name="Group 644" clip-path="url(#clip-path)">
              <g id="Group_634" data-name="Group 634" transform="translate(23.021 10.74)" opacity="0.8">
                <g id="Group_633" data-name="Group 633">
                  <g id="Group_632" data-name="Group 632" clip-path="url(#clip-path-4)">
                    <path id="Path_306" data-name="Path 306" d="M93.007,47.25h2.466a.985.985,0,0,0,.983-.983v-2.35a.987.987,0,0,0-.983-.984H93.007a.986.986,0,0,0-.982.984v2.35a.985.985,0,0,0,.982.983" transform="translate(-92.025 -42.933)" fill="#676ab1"/>
                  </g>
                </g>
              </g>
              <g id="Group_637" data-name="Group 637" transform="translate(14.656 14.934)" opacity="0.8">
                <g id="Group_636" data-name="Group 636">
                  <g id="Group_635" data-name="Group 635" clip-path="url(#clip-path-5)">
                    <path id="Path_307" data-name="Path 307" d="M62.968,68.19a4.249,4.249,0,1,0-4.382-4.247,4.317,4.317,0,0,0,4.382,4.247" transform="translate(-58.586 -59.697)" fill="#676ab1"/>
                  </g>
                </g>
              </g>
              <g id="Group_640" data-name="Group 640" opacity="0.8">
                <g id="Group_639" data-name="Group 639">
                  <g id="Group_638" data-name="Group 638" clip-path="url(#clip-path)">
                    <path id="Path_308" data-name="Path 308" d="M31.819,0H5.7A5.7,5.7,0,0,0,0,5.7V31.818a5.7,5.7,0,0,0,5.7,5.7H31.819a5.7,5.7,0,0,0,5.7-5.7V5.7a5.7,5.7,0,0,0-5.7-5.7m-1.89,27.338a2.808,2.808,0,0,1-2.8,2.8H10.908a2.809,2.809,0,0,1-2.8-2.8V11.118a2.81,2.81,0,0,1,2.8-2.8h16.22a2.809,2.809,0,0,1,2.8,2.8Z" fill="#676ab1"/>
                  </g>
                </g>
              </g>
              <g id="Group_643" data-name="Group 643" transform="translate(10.532 17.545)" opacity="0.8">
                <g id="Group_642" data-name="Group 642">
                  <g id="Group_641" data-name="Group 641" clip-path="url(#clip-path-7)">
                    <path id="Path_309" data-name="Path 309" d="M57.392,72.006a6.787,6.787,0,0,1-13.568,0,6.407,6.407,0,0,1,.281-1.874h-2v9.219a.868.868,0,0,0,.867.865h15.2a.867.867,0,0,0,.867-.865V70.132h-1.92a6.382,6.382,0,0,1,.281,1.874" transform="translate(-42.101 -70.132)" fill="#676ab1"/>
                  </g>
                </g>
              </g>
            </g>
          </g>
        </g>
        <g id="Group_661" data-name="Group 661" style="mix-blend-mode: darken;isolation: isolate">
          <g id="Group_660" data-name="Group 660">
            <g id="Group_659" data-name="Group 659" clip-path="url(#clip-path)">
              <g id="Group_649" data-name="Group 649" transform="translate(23.021 10.74)" opacity="0.8">
                <g id="Group_648" data-name="Group 648">
                  <g id="Group_647" data-name="Group 647" clip-path="url(#clip-path-4)">
                    <path id="Path_310" data-name="Path 310" d="M93.007,47.25h2.466a.985.985,0,0,0,.983-.983v-2.35a.987.987,0,0,0-.983-.984H93.007a.986.986,0,0,0-.982.984v2.35a.985.985,0,0,0,.982.983" transform="translate(-92.025 -42.933)" fill="#676ab1"/>
                  </g>
                </g>
              </g>
              <g id="Group_652" data-name="Group 652" transform="translate(14.656 14.934)" opacity="0.8">
                <g id="Group_651" data-name="Group 651">
                  <g id="Group_650" data-name="Group 650" clip-path="url(#clip-path-5)">
                    <path id="Path_311" data-name="Path 311" d="M62.968,68.19a4.249,4.249,0,1,0-4.382-4.247,4.317,4.317,0,0,0,4.382,4.247" transform="translate(-58.586 -59.697)" fill="#676ab1"/>
                  </g>
                </g>
              </g>
              <g id="Group_655" data-name="Group 655" opacity="0.8">
                <g id="Group_654" data-name="Group 654">
                  <g id="Group_653" data-name="Group 653" clip-path="url(#clip-path)">
                    <path id="Path_312" data-name="Path 312" d="M31.819,0H5.7A5.7,5.7,0,0,0,0,5.7V31.818a5.7,5.7,0,0,0,5.7,5.7H31.819a5.7,5.7,0,0,0,5.7-5.7V5.7a5.7,5.7,0,0,0-5.7-5.7m-1.89,27.338a2.808,2.808,0,0,1-2.8,2.8H10.908a2.809,2.809,0,0,1-2.8-2.8V11.118a2.81,2.81,0,0,1,2.8-2.8h16.22a2.809,2.809,0,0,1,2.8,2.8Z" fill="#676ab1"/>
                  </g>
                </g>
              </g>
              <g id="Group_658" data-name="Group 658" transform="translate(10.532 17.545)" opacity="0.8">
                <g id="Group_657" data-name="Group 657">
                  <g id="Group_656" data-name="Group 656" clip-path="url(#clip-path-7)">
                    <path id="Path_313" data-name="Path 313" d="M57.392,72.006a6.787,6.787,0,0,1-13.568,0,6.407,6.407,0,0,1,.281-1.874h-2v9.219a.868.868,0,0,0,.867.865h15.2a.867.867,0,0,0,.867-.865V70.132h-1.92a6.382,6.382,0,0,1,.281,1.874" transform="translate(-42.101 -70.132)" fill="#676ab1"/>
                  </g>
                </g>
              </g>
            </g>
          </g>
        </g>
        <g id="Group_676" data-name="Group 676" style="mix-blend-mode: darken;isolation: isolate">
          <g id="Group_675" data-name="Group 675">
            <g id="Group_674" data-name="Group 674" clip-path="url(#clip-path)">
              <g id="Group_664" data-name="Group 664" transform="translate(23.021 10.74)" opacity="0.8">
                <g id="Group_663" data-name="Group 663">
                  <g id="Group_662" data-name="Group 662" clip-path="url(#clip-path-4)">
                    <path id="Path_314" data-name="Path 314" d="M93.007,47.25h2.466a.985.985,0,0,0,.983-.983v-2.35a.987.987,0,0,0-.983-.984H93.007a.986.986,0,0,0-.982.984v2.35a.985.985,0,0,0,.982.983" transform="translate(-92.025 -42.933)" fill="#676ab1"/>
                  </g>
                </g>
              </g>
              <g id="Group_667" data-name="Group 667" transform="translate(14.656 14.934)" opacity="0.8">
                <g id="Group_666" data-name="Group 666">
                  <g id="Group_665" data-name="Group 665" clip-path="url(#clip-path-5)">
                    <path id="Path_315" data-name="Path 315" d="M62.968,68.19a4.249,4.249,0,1,0-4.382-4.247,4.317,4.317,0,0,0,4.382,4.247" transform="translate(-58.586 -59.697)" fill="#676ab1"/>
                  </g>
                </g>
              </g>
              <g id="Group_670" data-name="Group 670" opacity="0.8">
                <g id="Group_669" data-name="Group 669">
                  <g id="Group_668" data-name="Group 668" clip-path="url(#clip-path)">
                    <path id="Path_316" data-name="Path 316" d="M31.819,0H5.7A5.7,5.7,0,0,0,0,5.7V31.818a5.7,5.7,0,0,0,5.7,5.7H31.819a5.7,5.7,0,0,0,5.7-5.7V5.7a5.7,5.7,0,0,0-5.7-5.7m-1.89,27.338a2.808,2.808,0,0,1-2.8,2.8H10.908a2.809,2.809,0,0,1-2.8-2.8V11.118a2.81,2.81,0,0,1,2.8-2.8h16.22a2.809,2.809,0,0,1,2.8,2.8Z" fill="#676ab1"/>
                  </g>
                </g>
              </g>
              <g id="Group_673" data-name="Group 673" transform="translate(10.532 17.545)" opacity="0.8">
                <g id="Group_672" data-name="Group 672">
                  <g id="Group_671" data-name="Group 671" clip-path="url(#clip-path-7)">
                    <path id="Path_317" data-name="Path 317" d="M57.392,72.006a6.787,6.787,0,0,1-13.568,0,6.407,6.407,0,0,1,.281-1.874h-2v9.219a.868.868,0,0,0,.867.865h15.2a.867.867,0,0,0,.867-.865V70.132h-1.92a6.382,6.382,0,0,1,.281,1.874" transform="translate(-42.101 -70.132)" fill="#676ab1"/>
                  </g>
                </g>
              </g>
            </g>
          </g>
        </g>
        <g id="Group_691" data-name="Group 691" style="mix-blend-mode: darken;isolation: isolate">
          <g id="Group_690" data-name="Group 690">
            <g id="Group_689" data-name="Group 689" clip-path="url(#clip-path)">
              <g id="Group_679" data-name="Group 679" transform="translate(23.021 10.74)" opacity="0.8">
                <g id="Group_678" data-name="Group 678">
                  <g id="Group_677" data-name="Group 677" clip-path="url(#clip-path-4)">
                    <path id="Path_318" data-name="Path 318" d="M93.007,47.25h2.466a.985.985,0,0,0,.983-.983v-2.35a.987.987,0,0,0-.983-.984H93.007a.986.986,0,0,0-.982.984v2.35a.985.985,0,0,0,.982.983" transform="translate(-92.025 -42.933)" fill="#676ab1"/>
                  </g>
                </g>
              </g>
              <g id="Group_682" data-name="Group 682" transform="translate(14.656 14.934)" opacity="0.8">
                <g id="Group_681" data-name="Group 681">
                  <g id="Group_680" data-name="Group 680" clip-path="url(#clip-path-5)">
                    <path id="Path_319" data-name="Path 319" d="M62.968,68.19a4.249,4.249,0,1,0-4.382-4.247,4.317,4.317,0,0,0,4.382,4.247" transform="translate(-58.586 -59.697)" fill="#676ab1"/>
                  </g>
                </g>
              </g>
              <g id="Group_685" data-name="Group 685" opacity="0.8">
                <g id="Group_684" data-name="Group 684">
                  <g id="Group_683" data-name="Group 683" clip-path="url(#clip-path)">
                    <path id="Path_320" data-name="Path 320" d="M31.819,0H5.7A5.7,5.7,0,0,0,0,5.7V31.818a5.7,5.7,0,0,0,5.7,5.7H31.819a5.7,5.7,0,0,0,5.7-5.7V5.7a5.7,5.7,0,0,0-5.7-5.7m-1.89,27.338a2.808,2.808,0,0,1-2.8,2.8H10.908a2.809,2.809,0,0,1-2.8-2.8V11.118a2.81,2.81,0,0,1,2.8-2.8h16.22a2.809,2.809,0,0,1,2.8,2.8Z" fill="#676ab1"/>
                  </g>
                </g>
              </g>
              <g id="Group_688" data-name="Group 688" transform="translate(10.532 17.545)" opacity="0.8">
                <g id="Group_687" data-name="Group 687">
                  <g id="Group_686" data-name="Group 686" clip-path="url(#clip-path-7)">
                    <path id="Path_321" data-name="Path 321" d="M57.392,72.006a6.787,6.787,0,0,1-13.568,0,6.407,6.407,0,0,1,.281-1.874h-2v9.219a.868.868,0,0,0,.867.865h15.2a.867.867,0,0,0,.867-.865V70.132h-1.92a6.382,6.382,0,0,1,.281,1.874" transform="translate(-42.101 -70.132)" fill="#676ab1"/>
                  </g>
                </g>
              </g>
            </g>
          </g>
        </g>
        <g id="Group_706" data-name="Group 706" style="mix-blend-mode: darken;isolation: isolate">
          <g id="Group_705" data-name="Group 705">
            <g id="Group_704" data-name="Group 704" clip-path="url(#clip-path)">
              <g id="Group_694" data-name="Group 694" transform="translate(23.021 10.74)" opacity="0.8">
                <g id="Group_693" data-name="Group 693">
                  <g id="Group_692" data-name="Group 692" clip-path="url(#clip-path-4)">
                    <path id="Path_322" data-name="Path 322" d="M93.007,47.25h2.466a.985.985,0,0,0,.983-.983v-2.35a.987.987,0,0,0-.983-.984H93.007a.986.986,0,0,0-.982.984v2.35a.985.985,0,0,0,.982.983" transform="translate(-92.025 -42.933)" fill="#676ab1"/>
                  </g>
                </g>
              </g>
              <g id="Group_697" data-name="Group 697" transform="translate(14.656 14.934)" opacity="0.8">
                <g id="Group_696" data-name="Group 696">
                  <g id="Group_695" data-name="Group 695" clip-path="url(#clip-path-5)">
                    <path id="Path_323" data-name="Path 323" d="M62.968,68.19a4.249,4.249,0,1,0-4.382-4.247,4.317,4.317,0,0,0,4.382,4.247" transform="translate(-58.586 -59.697)" fill="#676ab1"/>
                  </g>
                </g>
              </g>
              <g id="Group_700" data-name="Group 700" opacity="0.8">
                <g id="Group_699" data-name="Group 699">
                  <g id="Group_698" data-name="Group 698" clip-path="url(#clip-path)">
                    <path id="Path_324" data-name="Path 324" d="M31.819,0H5.7A5.7,5.7,0,0,0,0,5.7V31.818a5.7,5.7,0,0,0,5.7,5.7H31.819a5.7,5.7,0,0,0,5.7-5.7V5.7a5.7,5.7,0,0,0-5.7-5.7m-1.89,27.338a2.808,2.808,0,0,1-2.8,2.8H10.908a2.809,2.809,0,0,1-2.8-2.8V11.118a2.81,2.81,0,0,1,2.8-2.8h16.22a2.809,2.809,0,0,1,2.8,2.8Z" fill="#676ab1"/>
                  </g>
                </g>
              </g>
              <g id="Group_703" data-name="Group 703" transform="translate(10.532 17.545)" opacity="0.8">
                <g id="Group_702" data-name="Group 702">
                  <g id="Group_701" data-name="Group 701" clip-path="url(#clip-path-7)">
                    <path id="Path_325" data-name="Path 325" d="M57.392,72.006a6.787,6.787,0,0,1-13.568,0,6.407,6.407,0,0,1,.281-1.874h-2v9.219a.868.868,0,0,0,.867.865h15.2a.867.867,0,0,0,.867-.865V70.132h-1.92a6.382,6.382,0,0,1,.281,1.874" transform="translate(-42.101 -70.132)" fill="#676ab1"/>
                  </g>
                </g>
              </g>
            </g>
          </g>
        </g>
        <g id="Group_721" data-name="Group 721" style="mix-blend-mode: darken;isolation: isolate">
          <g id="Group_720" data-name="Group 720">
            <g id="Group_719" data-name="Group 719" clip-path="url(#clip-path)">
              <g id="Group_709" data-name="Group 709" transform="translate(23.021 10.74)" opacity="0.8">
                <g id="Group_708" data-name="Group 708">
                  <g id="Group_707" data-name="Group 707" clip-path="url(#clip-path-4)">
                    <path id="Path_326" data-name="Path 326" d="M93.007,47.25h2.466a.985.985,0,0,0,.983-.983v-2.35a.987.987,0,0,0-.983-.984H93.007a.986.986,0,0,0-.982.984v2.35a.985.985,0,0,0,.982.983" transform="translate(-92.025 -42.933)" fill="#676ab1"/>
                  </g>
                </g>
              </g>
              <g id="Group_712" data-name="Group 712" transform="translate(14.656 14.934)" opacity="0.8">
                <g id="Group_711" data-name="Group 711">
                  <g id="Group_710" data-name="Group 710" clip-path="url(#clip-path-5)">
                    <path id="Path_327" data-name="Path 327" d="M62.968,68.19a4.249,4.249,0,1,0-4.382-4.247,4.317,4.317,0,0,0,4.382,4.247" transform="translate(-58.586 -59.697)" fill="#676ab1"/>
                  </g>
                </g>
              </g>
              <g id="Group_715" data-name="Group 715" opacity="0.8">
                <g id="Group_714" data-name="Group 714">
                  <g id="Group_713" data-name="Group 713" clip-path="url(#clip-path)">
                    <path id="Path_328" data-name="Path 328" d="M31.819,0H5.7A5.7,5.7,0,0,0,0,5.7V31.818a5.7,5.7,0,0,0,5.7,5.7H31.819a5.7,5.7,0,0,0,5.7-5.7V5.7a5.7,5.7,0,0,0-5.7-5.7m-1.89,27.338a2.808,2.808,0,0,1-2.8,2.8H10.908a2.809,2.809,0,0,1-2.8-2.8V11.118a2.81,2.81,0,0,1,2.8-2.8h16.22a2.809,2.809,0,0,1,2.8,2.8Z" fill="#676ab1"/>
                  </g>
                </g>
              </g>
              <g id="Group_718" data-name="Group 718" transform="translate(10.532 17.545)" opacity="0.8">
                <g id="Group_717" data-name="Group 717">
                  <g id="Group_716" data-name="Group 716" clip-path="url(#clip-path-7)">
                    <path id="Path_329" data-name="Path 329" d="M57.392,72.006a6.787,6.787,0,0,1-13.568,0,6.407,6.407,0,0,1,.281-1.874h-2v9.219a.868.868,0,0,0,.867.865h15.2a.867.867,0,0,0,.867-.865V70.132h-1.92a6.382,6.382,0,0,1,.281,1.874" transform="translate(-42.101 -70.132)" fill="#676ab1"/>
                  </g>
                </g>
              </g>
            </g>
          </g>
        </g>
      </g>
    </g>
  </g>
</svg>
