<svg id="Group_936" data-name="Group 936" xmlns="http://www.w3.org/2000/svg" xmlns:xlink="http://www.w3.org/1999/xlink" width="134" height="134" viewBox="0 0 134 134">
  <defs>
    <clipPath id="clip-path">
      <rect id="Rectangle_387" data-name="Rectangle 387" width="134" height="134" fill="none"/>
    </clipPath>
  </defs>
  <g id="Group_938" data-name="Group 938" clip-path="url(#clip-path)">
    <path id="Path_458" data-name="Path 458" d="M67,0A67,67,0,1,1,0,67,67,67,0,0,1,67,0" fill="#434197"/>
    <path id="Path_459" data-name="Path 459" d="M103.041,47.563V86.436a2.964,2.964,0,0,1-2.964,2.964H33.924a2.964,2.964,0,0,1-2.964-2.964V47.563A2.964,2.964,0,0,1,33.924,44.6h66.153a2.964,2.964,0,0,1,2.964,2.963m-65.87.2L67,71.554l29.83-23.8ZM34.125,84.41,56.309,67,34.125,49.387V84.411Zm63.172,1.9L75.232,69l-5.371,4.245a4.615,4.615,0,0,1-5.722,0L58.768,69,36.7,86.313H97.3Zm2.582-36.927L77.695,67l22.184,17.4V49.385Z" fill="#fff"/>
  </g>
</svg>
